<svg width="1200" height="261" viewBox="0 0 1200 261" fill="none" xmlns="http://www.w3.org/2000/svg">
<rect width="1200" height="261" fill="white"/>
<path d="M306.103 97.13C305.463 97.59 304.643 97.92 303.643 98.12C302.663 98.32 301.653 98.42 300.613 98.42C299.353 98.42 298.153 98.23 297.013 97.85C295.893 97.45 294.903 96.82 294.043 95.96C293.183 95.08 292.493 93.95 291.973 92.57C291.473 91.17 291.223 89.48 291.223 87.5C291.223 85.44 291.503 83.72 292.063 82.34C292.643 80.94 293.383 79.82 294.283 78.98C295.203 78.12 296.223 77.51 297.343 77.15C298.463 76.77 299.583 76.58 300.703 76.58C301.903 76.58 302.913 76.66 303.733 76.82C304.573 76.98 305.263 77.17 305.803 77.39L304.993 80.87C304.533 80.65 303.983 80.49 303.343 80.39C302.723 80.29 301.963 80.24 301.063 80.24C299.403 80.24 298.063 80.83 297.043 82.01C296.043 83.19 295.543 85.02 295.543 87.5C295.543 88.58 295.663 89.57 295.903 90.47C296.143 91.35 296.503 92.11 296.983 92.75C297.483 93.37 298.093 93.86 298.813 94.22C299.553 94.56 300.403 94.73 301.363 94.73C302.263 94.73 303.023 94.64 303.643 94.46C304.263 94.28 304.803 94.05 305.263 93.77L306.103 97.13ZM308.641 77H321.091V80.66H312.751V85.55H320.341V89.21H312.751V94.34H321.241V98H308.641V77ZM342.735 101.75H339.825L339.375 98H325.875L325.425 101.75H322.515V94.34H324.735C324.875 94.12 325.105 93.63 325.425 92.87C325.745 92.11 326.065 91.04 326.385 89.66C326.705 88.26 326.975 86.52 327.195 84.44C327.415 82.34 327.515 79.86 327.495 77H340.065V94.34H342.735V101.75ZM335.955 94.34V80.66H331.305C331.185 84.22 330.895 87.14 330.435 89.42C329.995 91.68 329.545 93.32 329.085 94.34H335.955ZM343.752 87.5C343.752 84 344.522 81.31 346.062 79.43C347.602 77.53 349.802 76.58 352.662 76.58C354.162 76.58 355.472 76.84 356.592 77.36C357.712 77.88 358.642 78.62 359.382 79.58C360.122 80.54 360.672 81.69 361.032 83.03C361.392 84.37 361.572 85.86 361.572 87.5C361.572 91 360.792 93.7 359.232 95.6C357.692 97.48 355.502 98.42 352.662 98.42C351.142 98.42 349.822 98.16 348.702 97.64C347.582 97.12 346.652 96.38 345.912 95.42C345.192 94.46 344.652 93.31 344.292 91.97C343.932 90.63 343.752 89.14 343.752 87.5ZM348.072 87.5C348.072 88.56 348.162 89.54 348.342 90.44C348.522 91.32 348.792 92.08 349.152 92.72C349.532 93.36 350.012 93.86 350.592 94.22C351.172 94.58 351.862 94.76 352.662 94.76C354.122 94.76 355.252 94.19 356.052 93.05C356.852 91.91 357.252 90.06 357.252 87.5C357.252 86.48 357.162 85.53 356.982 84.65C356.822 83.77 356.562 83 356.202 82.34C355.842 81.68 355.372 81.17 354.792 80.81C354.212 80.43 353.502 80.24 352.662 80.24C351.202 80.24 350.072 80.83 349.272 82.01C348.472 83.17 348.072 85 348.072 87.5ZM376.3 89.21H368.62V98H364.51V77H368.62V85.55H376.3V77H380.41V98H376.3V89.21ZM394.401 93.35H387.951L386.361 98H382.251L389.811 76.85H392.841L400.401 98H396.081L394.401 93.35ZM389.001 90.05H393.501L391.941 85.37L391.311 82.07H391.161L390.531 85.4L389.001 90.05ZM408.636 87.62H426.696V91.07H408.636V87.62ZM448.751 89.21H441.071V98H436.961V77H441.071V85.55H448.751V77H452.861V98H448.751V89.21ZM456.502 77H468.952V80.66H460.612V85.55H468.202V89.21H460.612V94.34H469.102V98H456.502V77ZM472.176 77H485.106V80.66H476.286V85.04C476.626 84.98 477.036 84.92 477.516 84.86C478.016 84.8 478.506 84.77 478.986 84.77C480.106 84.77 481.136 84.88 482.076 85.1C483.016 85.32 483.816 85.69 484.476 86.21C485.156 86.71 485.686 87.38 486.066 88.22C486.446 89.04 486.636 90.05 486.636 91.25C486.636 92.43 486.436 93.46 486.036 94.34C485.656 95.22 485.096 95.95 484.356 96.53C483.636 97.11 482.756 97.55 481.716 97.85C480.696 98.15 479.546 98.3 478.266 98.3C477.926 98.3 477.496 98.29 476.976 98.27C476.476 98.25 475.936 98.22 475.356 98.18C474.796 98.14 474.236 98.09 473.676 98.03C473.116 97.97 472.616 97.89 472.176 97.79V77ZM478.566 94.91C479.086 94.91 479.566 94.85 480.006 94.73C480.466 94.59 480.866 94.39 481.206 94.13C481.546 93.85 481.816 93.5 482.016 93.08C482.216 92.66 482.316 92.15 482.316 91.55C482.316 90.83 482.206 90.25 481.986 89.81C481.766 89.37 481.466 89.03 481.086 88.79C480.706 88.53 480.266 88.36 479.766 88.28C479.286 88.2 478.766 88.16 478.206 88.16C477.926 88.16 477.576 88.19 477.156 88.25C476.736 88.29 476.446 88.33 476.286 88.37V94.76C476.506 94.82 476.836 94.86 477.276 94.88C477.736 94.9 478.166 94.91 478.566 94.91ZM488.625 87.5C488.625 84 489.395 81.31 490.935 79.43C492.475 77.53 494.675 76.58 497.535 76.58C499.035 76.58 500.345 76.84 501.465 77.36C502.585 77.88 503.515 78.62 504.255 79.58C504.995 80.54 505.545 81.69 505.905 83.03C506.265 84.37 506.445 85.86 506.445 87.5C506.445 91 505.665 93.7 504.105 95.6C502.565 97.48 500.375 98.42 497.535 98.42C496.015 98.42 494.695 98.16 493.575 97.64C492.455 97.12 491.525 96.38 490.785 95.42C490.065 94.46 489.525 93.31 489.165 91.97C488.805 90.63 488.625 89.14 488.625 87.5ZM492.945 87.5C492.945 88.56 493.035 89.54 493.215 90.44C493.395 91.32 493.665 92.08 494.025 92.72C494.405 93.36 494.885 93.86 495.465 94.22C496.045 94.58 496.735 94.76 497.535 94.76C498.995 94.76 500.125 94.19 500.925 93.05C501.725 91.91 502.125 90.06 502.125 87.5C502.125 86.48 502.035 85.53 501.855 84.65C501.695 83.77 501.435 83 501.075 82.34C500.715 81.68 500.245 81.17 499.665 80.81C499.085 80.43 498.375 80.24 497.535 80.24C496.075 80.24 494.945 80.83 494.145 82.01C493.345 83.17 492.945 85 492.945 87.5ZM519.865 80.66H515.395C515.315 82.56 515.225 84.29 515.125 85.85C515.025 87.41 514.885 88.82 514.705 90.08C514.545 91.32 514.325 92.42 514.045 93.38C513.765 94.34 513.405 95.17 512.965 95.87C512.685 96.33 512.365 96.71 512.005 97.01C511.665 97.31 511.305 97.55 510.925 97.73C510.545 97.91 510.165 98.03 509.785 98.09C509.425 98.17 509.085 98.21 508.765 98.21C508.305 98.21 507.915 98.17 507.595 98.09C507.295 98.03 506.995 97.93 506.695 97.79L507.145 94.25C507.265 94.29 507.385 94.32 507.505 94.34C507.625 94.36 507.745 94.37 507.865 94.37C508.185 94.37 508.495 94.29 508.795 94.13C509.115 93.97 509.385 93.7 509.605 93.32C509.905 92.88 510.165 92.24 510.385 91.4C510.605 90.54 510.795 89.45 510.955 88.13C511.135 86.81 511.275 85.24 511.375 83.42C511.475 81.58 511.545 79.44 511.585 77H523.975V98H519.865V80.66ZM527.576 77H531.686V84.53C531.786 84.51 531.946 84.49 532.166 84.47C532.406 84.43 532.656 84.4 532.916 84.38C533.196 84.36 533.476 84.34 533.756 84.32C534.036 84.3 534.296 84.29 534.536 84.29C535.516 84.29 536.466 84.39 537.386 84.59C538.306 84.79 539.116 85.15 539.816 85.67C540.536 86.17 541.106 86.86 541.526 87.74C541.946 88.6 542.156 89.7 542.156 91.04C542.156 93.44 541.406 95.25 539.906 96.47C538.426 97.69 536.296 98.3 533.516 98.3C533.236 98.3 532.856 98.29 532.376 98.27C531.916 98.27 531.406 98.25 530.846 98.21C530.286 98.17 529.716 98.12 529.136 98.06C528.576 98 528.056 97.91 527.576 97.79V77ZM533.726 94.64C534.286 94.64 534.816 94.59 535.316 94.49C535.816 94.37 536.256 94.18 536.636 93.92C537.016 93.64 537.306 93.28 537.506 92.84C537.726 92.4 537.836 91.86 537.836 91.22C537.836 90.54 537.716 89.99 537.476 89.57C537.256 89.13 536.956 88.79 536.576 88.55C536.216 88.31 535.786 88.15 535.286 88.07C534.786 87.99 534.266 87.95 533.726 87.95C533.586 87.95 533.416 87.96 533.216 87.98C533.016 88 532.816 88.02 532.616 88.04C532.416 88.06 532.226 88.09 532.046 88.13C531.886 88.15 531.766 88.17 531.686 88.19V94.46C531.906 94.52 532.196 94.57 532.556 94.61C532.936 94.63 533.326 94.64 533.726 94.64ZM544.656 98V77H548.766V94.34H553.716V77H557.826V94.34H562.776V77H566.886V98H544.656ZM569.836 87.5C569.836 84 570.606 81.31 572.146 79.43C573.686 77.53 575.886 76.58 578.746 76.58C580.246 76.58 581.556 76.84 582.676 77.36C583.796 77.88 584.726 78.62 585.466 79.58C586.206 80.54 586.756 81.69 587.116 83.03C587.476 84.37 587.656 85.86 587.656 87.5C587.656 91 586.876 93.7 585.316 95.6C583.776 97.48 581.586 98.42 578.746 98.42C577.226 98.42 575.906 98.16 574.786 97.64C573.666 97.12 572.736 96.38 571.996 95.42C571.276 94.46 570.736 93.31 570.376 91.97C570.016 90.63 569.836 89.14 569.836 87.5ZM574.156 87.5C574.156 88.56 574.246 89.54 574.426 90.44C574.606 91.32 574.876 92.08 575.236 92.72C575.616 93.36 576.096 93.86 576.676 94.22C577.256 94.58 577.946 94.76 578.746 94.76C580.206 94.76 581.336 94.19 582.136 93.05C582.936 91.91 583.336 90.06 583.336 87.5C583.336 86.48 583.246 85.53 583.066 84.65C582.906 83.77 582.646 83 582.286 82.34C581.926 81.68 581.456 81.17 580.876 80.81C580.296 80.43 579.586 80.24 578.746 80.24C577.286 80.24 576.156 80.83 575.356 82.01C574.556 83.17 574.156 85 574.156 87.5ZM602.834 86.36L603.074 83.63H602.924L601.514 86.45L593.684 98H590.594V77H594.704V88.43L594.404 91.25H594.584L596.054 88.34L603.884 77H606.944V98H602.834V86.36ZM596.984 71.78C597.064 72.42 597.294 72.88 597.674 73.16C598.074 73.44 598.584 73.58 599.204 73.58C600.544 73.58 601.284 72.99 601.424 71.81L604.754 72.32C604.534 73.58 603.954 74.5 603.014 75.08C602.094 75.66 600.814 75.95 599.174 75.95C598.354 75.95 597.604 75.89 596.924 75.77C596.244 75.65 595.644 75.46 595.124 75.2C594.624 74.92 594.204 74.55 593.864 74.09C593.544 73.63 593.344 73.06 593.264 72.38L596.984 71.78ZM630.372 80.66H622.272V98H618.162V77H630.372V80.66ZM630.598 87.5C630.598 84 631.368 81.31 632.908 79.43C634.448 77.53 636.648 76.58 639.508 76.58C641.008 76.58 642.318 76.84 643.438 77.36C644.558 77.88 645.488 78.62 646.228 79.58C646.968 80.54 647.518 81.69 647.878 83.03C648.238 84.37 648.418 85.86 648.418 87.5C648.418 91 647.638 93.7 646.078 95.6C644.538 97.48 642.348 98.42 639.508 98.42C637.988 98.42 636.668 98.16 635.548 97.64C634.428 97.12 633.498 96.38 632.758 95.42C632.038 94.46 631.498 93.31 631.138 91.97C630.778 90.63 630.598 89.14 630.598 87.5ZM634.918 87.5C634.918 88.56 635.008 89.54 635.188 90.44C635.368 91.32 635.638 92.08 635.998 92.72C636.378 93.36 636.858 93.86 637.438 94.22C638.018 94.58 638.708 94.76 639.508 94.76C640.968 94.76 642.098 94.19 642.898 93.05C643.698 91.91 644.098 90.06 644.098 87.5C644.098 86.48 644.008 85.53 643.828 84.65C643.668 83.77 643.408 83 643.048 82.34C642.688 81.68 642.218 81.17 641.638 80.81C641.058 80.43 640.348 80.24 639.508 80.24C638.048 80.24 636.918 80.83 636.118 82.01C635.318 83.17 634.918 85 634.918 87.5ZM651.356 77.21C652.196 77.05 653.116 76.93 654.116 76.85C655.136 76.75 656.146 76.7 657.146 76.7C658.186 76.7 659.226 76.79 660.266 76.97C661.326 77.13 662.276 77.47 663.116 77.99C663.956 78.49 664.636 79.2 665.156 80.12C665.696 81.02 665.966 82.2 665.966 83.66C665.966 84.98 665.736 86.1 665.276 87.02C664.816 87.92 664.206 88.66 663.446 89.24C662.686 89.82 661.816 90.24 660.836 90.5C659.876 90.76 658.876 90.89 657.836 90.89C657.736 90.89 657.576 90.89 657.356 90.89C657.136 90.89 656.906 90.89 656.666 90.89C656.426 90.87 656.186 90.85 655.946 90.83C655.726 90.81 655.566 90.79 655.466 90.77V98H651.356V77.21ZM657.476 80.24C657.076 80.24 656.696 80.26 656.336 80.3C655.976 80.32 655.686 80.35 655.466 80.39V87.2C655.546 87.22 655.666 87.24 655.826 87.26C655.986 87.28 656.156 87.3 656.336 87.32C656.516 87.32 656.686 87.32 656.846 87.32C657.026 87.32 657.156 87.32 657.236 87.32C657.776 87.32 658.306 87.27 658.826 87.17C659.366 87.07 659.846 86.89 660.266 86.63C660.686 86.35 661.016 85.97 661.256 85.49C661.516 85.01 661.646 84.38 661.646 83.6C661.646 82.94 661.526 82.4 661.286 81.98C661.046 81.54 660.726 81.19 660.326 80.93C659.946 80.67 659.506 80.49 659.006 80.39C658.506 80.29 657.996 80.24 657.476 80.24ZM667.541 87.5C667.541 84 668.311 81.31 669.851 79.43C671.391 77.53 673.591 76.58 676.451 76.58C677.951 76.58 679.261 76.84 680.381 77.36C681.501 77.88 682.431 78.62 683.171 79.58C683.911 80.54 684.461 81.69 684.821 83.03C685.181 84.37 685.361 85.86 685.361 87.5C685.361 91 684.581 93.7 683.021 95.6C681.481 97.48 679.291 98.42 676.451 98.42C674.931 98.42 673.611 98.16 672.491 97.64C671.371 97.12 670.441 96.38 669.701 95.42C668.981 94.46 668.441 93.31 668.081 91.97C667.721 90.63 667.541 89.14 667.541 87.5ZM671.861 87.5C671.861 88.56 671.951 89.54 672.131 90.44C672.311 91.32 672.581 92.08 672.941 92.72C673.321 93.36 673.801 93.86 674.381 94.22C674.961 94.58 675.651 94.76 676.451 94.76C677.911 94.76 679.041 94.19 679.841 93.05C680.641 91.91 681.041 90.06 681.041 87.5C681.041 86.48 680.951 85.53 680.771 84.65C680.611 83.77 680.351 83 679.991 82.34C679.631 81.68 679.161 81.17 678.581 80.81C678.001 80.43 677.291 80.24 676.451 80.24C674.991 80.24 673.861 80.83 673.061 82.01C672.261 83.17 671.861 85 671.861 87.5ZM706.162 101.75H703.252L702.802 98H689.302L688.852 101.75H685.942V94.34H688.162C688.302 94.12 688.532 93.63 688.852 92.87C689.172 92.11 689.492 91.04 689.812 89.66C690.132 88.26 690.402 86.52 690.622 84.44C690.842 82.34 690.942 79.86 690.922 77H703.492V94.34H706.162V101.75ZM699.382 94.34V80.66H694.732C694.612 84.22 694.322 87.14 693.862 89.42C693.422 91.68 692.972 93.32 692.512 94.34H699.382ZM707.18 87.5C707.18 84 707.95 81.31 709.49 79.43C711.03 77.53 713.23 76.58 716.09 76.58C717.59 76.58 718.9 76.84 720.02 77.36C721.14 77.88 722.07 78.62 722.81 79.58C723.55 80.54 724.1 81.69 724.46 83.03C724.82 84.37 725 85.86 725 87.5C725 91 724.22 93.7 722.66 95.6C721.12 97.48 718.93 98.42 716.09 98.42C714.57 98.42 713.25 98.16 712.13 97.64C711.01 97.12 710.08 96.38 709.34 95.42C708.62 94.46 708.08 93.31 707.72 91.97C707.36 90.63 707.18 89.14 707.18 87.5ZM711.5 87.5C711.5 88.56 711.59 89.54 711.77 90.44C711.95 91.32 712.22 92.08 712.58 92.72C712.96 93.36 713.44 93.86 714.02 94.22C714.6 94.58 715.29 94.76 716.09 94.76C717.55 94.76 718.68 94.19 719.48 93.05C720.28 91.91 720.68 90.06 720.68 87.5C720.68 86.48 720.59 85.53 720.41 84.65C720.25 83.77 719.99 83 719.63 82.34C719.27 81.68 718.8 81.17 718.22 80.81C717.64 80.43 716.93 80.24 716.09 80.24C714.63 80.24 713.5 80.83 712.7 82.01C711.9 83.17 711.5 85 711.5 87.5ZM733.128 89.03H732.048V98H727.938V77H732.048V86.3L733.008 85.88L738.798 77H743.478L737.358 85.82L735.738 86.96L737.418 88.13L744.408 98H739.338L733.128 89.03ZM767.761 81.89C767.761 82.41 767.691 82.93 767.551 83.45C767.431 83.97 767.221 84.45 766.921 84.89C766.621 85.31 766.231 85.69 765.751 86.03C765.271 86.35 764.691 86.59 764.011 86.75V86.93C764.611 87.03 765.181 87.2 765.721 87.44C766.261 87.68 766.731 88.01 767.131 88.43C767.531 88.85 767.841 89.36 768.061 89.96C768.301 90.56 768.421 91.27 768.421 92.09C768.421 93.17 768.191 94.11 767.731 94.91C767.271 95.69 766.651 96.33 765.871 96.83C765.111 97.33 764.241 97.7 763.261 97.94C762.281 98.18 761.271 98.3 760.231 98.3C759.891 98.3 759.451 98.3 758.911 98.3C758.391 98.3 757.821 98.28 757.201 98.24C756.601 98.22 755.981 98.18 755.341 98.12C754.721 98.06 754.151 97.97 753.631 97.85V77.15C754.011 77.09 754.441 77.03 754.921 76.97C755.421 76.91 755.951 76.86 756.511 76.82C757.071 76.78 757.641 76.75 758.221 76.73C758.821 76.71 759.411 76.7 759.991 76.7C760.971 76.7 761.921 76.78 762.841 76.94C763.781 77.08 764.611 77.34 765.331 77.72C766.071 78.1 766.661 78.63 767.101 79.31C767.541 79.99 767.761 80.85 767.761 81.89ZM760.261 94.91C760.761 94.91 761.241 94.85 761.701 94.73C762.181 94.61 762.601 94.43 762.961 94.19C763.321 93.93 763.611 93.61 763.831 93.23C764.051 92.85 764.161 92.4 764.161 91.88C764.161 91.22 764.031 90.7 763.771 90.32C763.511 89.94 763.171 89.65 762.751 89.45C762.331 89.23 761.861 89.09 761.341 89.03C760.821 88.97 760.301 88.94 759.781 88.94H757.591V94.73C757.691 94.77 757.851 94.8 758.071 94.82C758.291 94.84 758.521 94.86 758.761 94.88C759.021 94.88 759.281 94.89 759.541 94.91C759.821 94.91 760.061 94.91 760.261 94.91ZM758.911 85.82C759.191 85.82 759.511 85.81 759.871 85.79C760.251 85.77 760.561 85.74 760.801 85.7C761.561 85.46 762.211 85.1 762.751 84.62C763.311 84.14 763.591 83.51 763.591 82.73C763.591 82.21 763.491 81.78 763.291 81.44C763.091 81.1 762.821 80.83 762.481 80.63C762.161 80.43 761.791 80.29 761.371 80.21C760.951 80.13 760.511 80.09 760.051 80.09C759.531 80.09 759.051 80.1 758.611 80.12C758.171 80.14 757.831 80.17 757.591 80.21V85.82H758.911ZM788.092 93.35H781.642L780.052 98H775.942L783.502 76.85H786.532L794.092 98H789.772L788.092 93.35ZM782.692 90.05H787.192L785.632 85.37L785.002 82.07H784.852L784.222 85.4L782.692 90.05ZM795.906 77.21C796.746 77.05 797.666 76.93 798.666 76.85C799.686 76.75 800.696 76.7 801.696 76.7C802.736 76.7 803.776 76.79 804.816 76.97C805.876 77.13 806.826 77.47 807.666 77.99C808.506 78.49 809.186 79.2 809.706 80.12C810.246 81.02 810.516 82.2 810.516 83.66C810.516 84.98 810.286 86.1 809.826 87.02C809.366 87.92 808.756 88.66 807.996 89.24C807.236 89.82 806.366 90.24 805.386 90.5C804.426 90.76 803.426 90.89 802.386 90.89C802.286 90.89 802.126 90.89 801.906 90.89C801.686 90.89 801.456 90.89 801.216 90.89C800.976 90.87 800.736 90.85 800.496 90.83C800.276 90.81 800.116 90.79 800.016 90.77V98H795.906V77.21ZM802.026 80.24C801.626 80.24 801.246 80.26 800.886 80.3C800.526 80.32 800.236 80.35 800.016 80.39V87.2C800.096 87.22 800.216 87.24 800.376 87.26C800.536 87.28 800.706 87.3 800.886 87.32C801.066 87.32 801.236 87.32 801.396 87.32C801.576 87.32 801.706 87.32 801.786 87.32C802.326 87.32 802.856 87.27 803.376 87.17C803.916 87.07 804.396 86.89 804.816 86.63C805.236 86.35 805.566 85.97 805.806 85.49C806.066 85.01 806.196 84.38 806.196 83.6C806.196 82.94 806.076 82.4 805.836 81.98C805.596 81.54 805.276 81.19 804.876 80.93C804.496 80.67 804.056 80.49 803.556 80.39C803.056 80.29 802.546 80.24 802.026 80.24ZM825.314 86.36L825.554 83.63H825.404L823.994 86.45L816.164 98H813.074V77H817.184V88.43L816.884 91.25H817.064L818.534 88.34L826.364 77H829.424V98H825.314V86.36ZM834.855 88.7V85.49H835.575C835.755 85.49 835.975 85.49 836.235 85.49C836.495 85.49 836.755 85.49 837.015 85.49C837.295 85.47 837.565 85.45 837.825 85.43C838.085 85.39 838.295 85.35 838.455 85.31C839.155 85.15 839.755 84.87 840.255 84.47C840.755 84.05 841.005 83.49 841.005 82.79C841.005 81.83 840.695 81.18 840.075 80.84C839.475 80.48 838.675 80.3 837.675 80.3C836.775 80.3 835.935 80.42 835.155 80.66C834.375 80.9 833.785 81.13 833.385 81.35L832.335 77.87C832.555 77.75 832.865 77.62 833.265 77.48C833.685 77.34 834.155 77.21 834.675 77.09C835.215 76.95 835.795 76.84 836.415 76.76C837.035 76.68 837.665 76.64 838.305 76.64C839.185 76.64 840.045 76.72 840.885 76.88C841.725 77.04 842.475 77.32 843.135 77.72C843.795 78.12 844.325 78.66 844.725 79.34C845.125 80 845.325 80.85 845.325 81.89C845.325 82.93 845.045 83.89 844.485 84.77C843.945 85.65 843.065 86.29 841.845 86.69V86.84C843.145 87.1 844.155 87.66 844.875 88.52C845.615 89.38 845.985 90.53 845.985 91.97C845.985 93.11 845.755 94.09 845.295 94.91C844.835 95.71 844.225 96.37 843.465 96.89C842.725 97.41 841.865 97.79 840.885 98.03C839.905 98.29 838.905 98.42 837.885 98.42C836.565 98.42 835.365 98.31 834.285 98.09C833.205 97.87 832.375 97.61 831.795 97.31L832.845 93.74C833.305 93.96 833.965 94.19 834.825 94.43C835.685 94.65 836.705 94.76 837.885 94.76C838.325 94.76 838.765 94.71 839.205 94.61C839.665 94.49 840.075 94.31 840.435 94.07C840.795 93.81 841.085 93.48 841.305 93.08C841.525 92.68 841.635 92.2 841.635 91.64C841.635 90.7 841.285 89.99 840.585 89.51C839.885 89.03 838.635 88.77 836.835 88.73C836.595 88.71 836.415 88.7 836.295 88.7C836.175 88.7 835.965 88.7 835.665 88.7H834.855ZM848.186 87.5C848.186 84 848.956 81.31 850.496 79.43C852.036 77.53 854.236 76.58 857.096 76.58C858.596 76.58 859.906 76.84 861.026 77.36C862.146 77.88 863.076 78.62 863.816 79.58C864.556 80.54 865.106 81.69 865.466 83.03C865.826 84.37 866.006 85.86 866.006 87.5C866.006 91 865.226 93.7 863.666 95.6C862.126 97.48 859.936 98.42 857.096 98.42C855.576 98.42 854.256 98.16 853.136 97.64C852.016 97.12 851.086 96.38 850.346 95.42C849.626 94.46 849.086 93.31 848.726 91.97C848.366 90.63 848.186 89.14 848.186 87.5ZM852.506 87.5C852.506 88.56 852.596 89.54 852.776 90.44C852.956 91.32 853.226 92.08 853.586 92.72C853.966 93.36 854.446 93.86 855.026 94.22C855.606 94.58 856.296 94.76 857.096 94.76C858.556 94.76 859.686 94.19 860.486 93.05C861.286 91.91 861.686 90.06 861.686 87.5C861.686 86.48 861.596 85.53 861.416 84.65C861.256 83.77 860.996 83 860.636 82.34C860.276 81.68 859.806 81.17 859.226 80.81C858.646 80.43 857.936 80.24 857.096 80.24C855.636 80.24 854.506 80.83 853.706 82.01C852.906 83.17 852.506 85 852.506 87.5ZM880.734 89.21H873.054V98H868.944V77H873.054V85.55H880.734V77H884.844V98H880.734V89.21ZM888.485 77H900.935V80.66H892.595V85.55H900.185V89.21H892.595V94.34H901.085V98H888.485V77ZM903.618 96.08C903.618 95.4 903.838 94.86 904.278 94.46C904.738 94.06 905.298 93.86 905.958 93.86C906.798 93.86 907.458 94.14 907.938 94.7C908.418 95.26 908.658 96 908.658 96.92C908.658 97.82 908.518 98.59 908.238 99.23C907.958 99.89 907.608 100.43 907.188 100.85C906.788 101.29 906.348 101.63 905.868 101.87C905.408 102.13 904.988 102.32 904.608 102.44L903.468 100.82C904.008 100.6 904.478 100.24 904.878 99.74C905.278 99.24 905.498 98.71 905.538 98.15C905.078 98.21 904.638 98.07 904.218 97.73C903.818 97.39 903.618 96.84 903.618 96.08ZM391.725 124.7V121.49H392.445C392.625 121.49 392.845 121.49 393.105 121.49C393.365 121.49 393.625 121.49 393.885 121.49C394.165 121.47 394.435 121.45 394.695 121.43C394.955 121.39 395.165 121.35 395.325 121.31C396.025 121.15 396.625 120.87 397.125 120.47C397.625 120.05 397.875 119.49 397.875 118.79C397.875 117.83 397.565 117.18 396.945 116.84C396.345 116.48 395.545 116.3 394.545 116.3C393.645 116.3 392.805 116.42 392.025 116.66C391.245 116.9 390.655 117.13 390.255 117.35L389.205 113.87C389.425 113.75 389.735 113.62 390.135 113.48C390.555 113.34 391.025 113.21 391.545 113.09C392.085 112.95 392.665 112.84 393.285 112.76C393.905 112.68 394.535 112.64 395.175 112.64C396.055 112.64 396.915 112.72 397.755 112.88C398.595 113.04 399.345 113.32 400.005 113.72C400.665 114.12 401.195 114.66 401.595 115.34C401.995 116 402.195 116.85 402.195 117.89C402.195 118.93 401.915 119.89 401.355 120.77C400.815 121.65 399.935 122.29 398.715 122.69V122.84C400.015 123.1 401.025 123.66 401.745 124.52C402.485 125.38 402.855 126.53 402.855 127.97C402.855 129.11 402.625 130.09 402.165 130.91C401.705 131.71 401.095 132.37 400.335 132.89C399.595 133.41 398.735 133.79 397.755 134.03C396.775 134.29 395.775 134.42 394.755 134.42C393.435 134.42 392.235 134.31 391.155 134.09C390.075 133.87 389.245 133.61 388.665 133.31L389.715 129.74C390.175 129.96 390.835 130.19 391.695 130.43C392.555 130.65 393.575 130.76 394.755 130.76C395.195 130.76 395.635 130.71 396.075 130.61C396.535 130.49 396.945 130.31 397.305 130.07C397.665 129.81 397.955 129.48 398.175 129.08C398.395 128.68 398.505 128.2 398.505 127.64C398.505 126.7 398.155 125.99 397.455 125.51C396.755 125.03 395.505 124.77 393.705 124.73C393.465 124.71 393.285 124.7 393.165 124.7C393.045 124.7 392.835 124.7 392.535 124.7H391.725ZM416.066 129.35H409.616L408.026 134H403.916L411.476 112.85H414.506L422.066 134H417.746L416.066 129.35ZM410.666 126.05H415.166L413.606 121.37L412.976 118.07H412.826L412.196 121.4L410.666 126.05ZM437.163 133.13C436.523 133.59 435.703 133.92 434.703 134.12C433.723 134.32 432.713 134.42 431.673 134.42C430.413 134.42 429.213 134.23 428.073 133.85C426.953 133.45 425.963 132.82 425.103 131.96C424.243 131.08 423.553 129.95 423.033 128.57C422.533 127.17 422.283 125.48 422.283 123.5C422.283 121.44 422.563 119.72 423.123 118.34C423.703 116.94 424.443 115.82 425.343 114.98C426.263 114.12 427.283 113.51 428.403 113.15C429.523 112.77 430.643 112.58 431.763 112.58C432.963 112.58 433.973 112.66 434.793 112.82C435.633 112.98 436.323 113.17 436.863 113.39L436.053 116.87C435.593 116.65 435.043 116.49 434.403 116.39C433.783 116.29 433.023 116.24 432.123 116.24C430.463 116.24 429.123 116.83 428.103 118.01C427.103 119.19 426.603 121.02 426.603 123.5C426.603 124.58 426.723 125.57 426.963 126.47C427.203 127.35 427.563 128.11 428.043 128.75C428.543 129.37 429.153 129.86 429.873 130.22C430.613 130.56 431.463 130.73 432.423 130.73C433.323 130.73 434.083 130.64 434.703 130.46C435.323 130.28 435.863 130.05 436.323 129.77L437.163 133.13ZM450.973 116.66H446.503C446.423 118.56 446.333 120.29 446.233 121.85C446.133 123.41 445.993 124.82 445.813 126.08C445.653 127.32 445.433 128.42 445.153 129.38C444.873 130.34 444.513 131.17 444.073 131.87C443.793 132.33 443.473 132.71 443.113 133.01C442.773 133.31 442.413 133.55 442.033 133.73C441.653 133.91 441.273 134.03 440.893 134.09C440.533 134.17 440.193 134.21 439.873 134.21C439.413 134.21 439.023 134.17 438.703 134.09C438.403 134.03 438.103 133.93 437.803 133.79L438.253 130.25C438.373 130.29 438.493 130.32 438.613 130.34C438.733 130.36 438.853 130.37 438.973 130.37C439.293 130.37 439.603 130.29 439.903 130.13C440.223 129.97 440.493 129.7 440.713 129.32C441.013 128.88 441.273 128.24 441.493 127.4C441.713 126.54 441.903 125.45 442.063 124.13C442.243 122.81 442.383 121.24 442.483 119.42C442.583 117.58 442.653 115.44 442.693 113H455.083V134H450.973V116.66ZM465.705 122.27L466.305 125H466.485L466.965 122.18L470.115 113H474.345L468.765 127.52C468.325 128.66 467.895 129.65 467.475 130.49C467.075 131.33 466.635 132.03 466.155 132.59C465.695 133.13 465.175 133.54 464.595 133.82C464.015 134.08 463.335 134.21 462.555 134.21C461.895 134.21 461.355 134.16 460.935 134.06C460.535 133.98 460.095 133.79 459.615 133.49L460.665 130.16C461.005 130.34 461.315 130.45 461.595 130.49C461.875 130.53 462.175 130.55 462.495 130.55C463.435 130.55 464.095 129.81 464.475 128.33L456.615 113H461.445L465.705 122.27ZM483.527 113H487.427V122.33L488.477 121.91L492.827 113H497.447L492.557 122.21L491.147 123.23L492.857 124.49L498.377 134H493.427L488.597 124.88H487.427V134H483.527V124.52L482.447 124.94L477.617 134H472.817L478.307 124.79L479.927 123.62L478.367 122.51L473.237 113H478.007L482.357 121.97H483.527V113ZM512.233 122.36L512.473 119.63H512.323L510.913 122.45L503.083 134H499.993V113H504.103V124.43L503.803 127.25H503.983L505.453 124.34L513.283 113H516.343V134H512.233V122.36ZM534.104 117.89C534.104 118.41 534.034 118.93 533.894 119.45C533.774 119.97 533.564 120.45 533.264 120.89C532.964 121.31 532.574 121.69 532.094 122.03C531.614 122.35 531.034 122.59 530.354 122.75V122.93C530.954 123.03 531.524 123.2 532.064 123.44C532.604 123.68 533.074 124.01 533.474 124.43C533.874 124.85 534.184 125.36 534.404 125.96C534.644 126.56 534.764 127.27 534.764 128.09C534.764 129.17 534.534 130.11 534.074 130.91C533.614 131.69 532.994 132.33 532.214 132.83C531.454 133.33 530.584 133.7 529.604 133.94C528.624 134.18 527.614 134.3 526.574 134.3C526.234 134.3 525.794 134.3 525.254 134.3C524.734 134.3 524.164 134.28 523.544 134.24C522.944 134.22 522.324 134.18 521.684 134.12C521.064 134.06 520.494 133.97 519.974 133.85V113.15C520.354 113.09 520.784 113.03 521.264 112.97C521.764 112.91 522.294 112.86 522.854 112.82C523.414 112.78 523.984 112.75 524.564 112.73C525.164 112.71 525.754 112.7 526.334 112.7C527.314 112.7 528.264 112.78 529.184 112.94C530.124 113.08 530.954 113.34 531.674 113.72C532.414 114.1 533.004 114.63 533.444 115.31C533.884 115.99 534.104 116.85 534.104 117.89ZM526.604 130.91C527.104 130.91 527.584 130.85 528.044 130.73C528.524 130.61 528.944 130.43 529.304 130.19C529.664 129.93 529.954 129.61 530.174 129.23C530.394 128.85 530.504 128.4 530.504 127.88C530.504 127.22 530.374 126.7 530.114 126.32C529.854 125.94 529.514 125.65 529.094 125.45C528.674 125.23 528.204 125.09 527.684 125.03C527.164 124.97 526.644 124.94 526.124 124.94H523.934V130.73C524.034 130.77 524.194 130.8 524.414 130.82C524.634 130.84 524.864 130.86 525.104 130.88C525.364 130.88 525.624 130.89 525.884 130.91C526.164 130.91 526.404 130.91 526.604 130.91ZM525.254 121.82C525.534 121.82 525.854 121.81 526.214 121.79C526.594 121.77 526.904 121.74 527.144 121.7C527.904 121.46 528.554 121.1 529.094 120.62C529.654 120.14 529.934 119.51 529.934 118.73C529.934 118.21 529.834 117.78 529.634 117.44C529.434 117.1 529.164 116.83 528.824 116.63C528.504 116.43 528.134 116.29 527.714 116.21C527.294 116.13 526.854 116.09 526.394 116.09C525.874 116.09 525.394 116.1 524.954 116.12C524.514 116.14 524.174 116.17 523.934 116.21V121.82H525.254ZM548.048 129.35H541.598L540.008 134H535.898L543.458 112.85H546.488L554.048 134H549.728L548.048 129.35ZM542.648 126.05H547.148L545.588 121.37L544.958 118.07H544.808L544.178 121.4L542.648 126.05ZM559.973 121.55H562.763C563.023 118.69 563.863 116.48 565.283 114.92C566.703 113.36 568.693 112.58 571.253 112.58C572.773 112.58 574.073 112.84 575.153 113.36C576.233 113.88 577.113 114.62 577.793 115.58C578.493 116.54 579.003 117.69 579.323 119.03C579.663 120.37 579.833 121.86 579.833 123.5C579.833 127 579.113 129.7 577.673 131.6C576.233 133.48 574.093 134.42 571.253 134.42C569.933 134.42 568.763 134.2 567.743 133.76C566.743 133.32 565.893 132.7 565.193 131.9C564.493 131.1 563.943 130.13 563.543 128.99C563.143 127.85 562.883 126.59 562.763 125.21H559.973V134H555.863V113H559.973V121.55ZM566.963 123.5C566.963 124.56 567.033 125.54 567.173 126.44C567.333 127.32 567.573 128.08 567.893 128.72C568.233 129.36 568.673 129.86 569.212 130.22C569.773 130.58 570.453 130.76 571.253 130.76C572.713 130.76 573.783 130.19 574.463 129.05C575.163 127.91 575.513 126.06 575.513 123.5C575.513 122.48 575.443 121.53 575.303 120.65C575.183 119.77 574.963 119 574.643 118.34C574.323 117.68 573.883 117.17 573.323 116.81C572.783 116.43 572.093 116.24 571.253 116.24C569.813 116.24 568.733 116.83 568.013 118.01C567.313 119.17 566.963 121 566.963 123.5ZM582.786 134V113H586.896V130.34H591.846V113H595.956V130.34H600.906V113H605.016V130.34H607.776V137.75H604.896L604.446 134H582.786ZM622.36 122.36L622.6 119.63H622.45L621.04 122.45L613.21 134H610.12V113H614.23V124.43L613.93 127.25H614.11L615.58 124.34L623.41 113H626.47V134H622.36V122.36ZM642.341 122.36L642.581 119.63H642.431L641.021 122.45L633.191 134H630.101V113H634.211V124.43L633.911 127.25H634.091L635.561 124.34L643.391 113H646.451V134H642.341V122.36ZM636.491 107.78C636.571 108.42 636.801 108.88 637.181 109.16C637.581 109.44 638.091 109.58 638.711 109.58C640.051 109.58 640.791 108.99 640.931 107.81L644.261 108.32C644.041 109.58 643.461 110.5 642.521 111.08C641.601 111.66 640.321 111.95 638.681 111.95C637.861 111.95 637.111 111.89 636.431 111.77C635.751 111.65 635.151 111.46 634.631 111.2C634.131 110.92 633.711 110.55 633.371 110.09C633.051 109.63 632.851 109.06 632.771 108.38L636.491 107.78ZM657.669 113H670.599V116.66H661.779V121.04C662.119 120.98 662.529 120.92 663.009 120.86C663.509 120.8 663.999 120.77 664.479 120.77C665.599 120.77 666.629 120.88 667.569 121.1C668.509 121.32 669.309 121.69 669.969 122.21C670.649 122.71 671.179 123.38 671.559 124.22C671.939 125.04 672.129 126.05 672.129 127.25C672.129 128.43 671.929 129.46 671.529 130.34C671.149 131.22 670.589 131.95 669.849 132.53C669.129 133.11 668.249 133.55 667.209 133.85C666.189 134.15 665.039 134.3 663.759 134.3C663.419 134.3 662.989 134.29 662.469 134.27C661.969 134.25 661.429 134.22 660.849 134.18C660.289 134.14 659.729 134.09 659.169 134.03C658.609 133.97 658.109 133.89 657.669 133.79V113ZM664.059 130.91C664.579 130.91 665.059 130.85 665.499 130.73C665.959 130.59 666.359 130.39 666.699 130.13C667.039 129.85 667.309 129.5 667.509 129.08C667.709 128.66 667.809 128.15 667.809 127.55C667.809 126.83 667.699 126.25 667.479 125.81C667.259 125.37 666.959 125.03 666.579 124.79C666.199 124.53 665.759 124.36 665.259 124.28C664.779 124.2 664.259 124.16 663.699 124.16C663.419 124.16 663.069 124.19 662.649 124.25C662.229 124.29 661.939 124.33 661.779 124.37V130.76C661.999 130.82 662.329 130.86 662.769 130.88C663.229 130.9 663.659 130.91 664.059 130.91ZM674.119 123.5C674.119 120 674.889 117.31 676.429 115.43C677.969 113.53 680.169 112.58 683.029 112.58C684.529 112.58 685.839 112.84 686.959 113.36C688.079 113.88 689.009 114.62 689.749 115.58C690.489 116.54 691.039 117.69 691.399 119.03C691.759 120.37 691.939 121.86 691.939 123.5C691.939 127 691.159 129.7 689.599 131.6C688.059 133.48 685.869 134.42 683.029 134.42C681.509 134.42 680.189 134.16 679.069 133.64C677.949 133.12 677.019 132.38 676.279 131.42C675.559 130.46 675.019 129.31 674.659 127.97C674.299 126.63 674.119 125.14 674.119 123.5ZM678.439 123.5C678.439 124.56 678.529 125.54 678.709 126.44C678.889 127.32 679.159 128.08 679.519 128.72C679.899 129.36 680.379 129.86 680.959 130.22C681.539 130.58 682.229 130.76 683.029 130.76C684.489 130.76 685.619 130.19 686.419 129.05C687.219 127.91 687.619 126.06 687.619 123.5C687.619 122.48 687.529 121.53 687.349 120.65C687.189 119.77 686.929 119 686.569 118.34C686.209 117.68 685.739 117.17 685.159 116.81C684.579 116.43 683.869 116.24 683.029 116.24C681.569 116.24 680.439 116.83 679.639 118.01C678.839 119.17 678.439 121 678.439 123.5ZM705.358 116.66H700.888C700.808 118.56 700.718 120.29 700.618 121.85C700.518 123.41 700.378 124.82 700.198 126.08C700.038 127.32 699.818 128.42 699.538 129.38C699.258 130.34 698.898 131.17 698.458 131.87C698.178 132.33 697.858 132.71 697.498 133.01C697.158 133.31 696.798 133.55 696.418 133.73C696.038 133.91 695.658 134.03 695.278 134.09C694.918 134.17 694.578 134.21 694.258 134.21C693.798 134.21 693.408 134.17 693.088 134.09C692.788 134.03 692.488 133.93 692.188 133.79L692.638 130.25C692.758 130.29 692.878 130.32 692.998 130.34C693.118 130.36 693.238 130.37 693.358 130.37C693.678 130.37 693.988 130.29 694.288 130.13C694.608 129.97 694.878 129.7 695.098 129.32C695.398 128.88 695.658 128.24 695.878 127.4C696.098 126.54 696.288 125.45 696.448 124.13C696.628 122.81 696.768 121.24 696.868 119.42C696.968 117.58 697.038 115.44 697.078 113H709.468V134H705.358V116.66ZM713.07 113H717.18V120.53C717.28 120.51 717.44 120.49 717.66 120.47C717.9 120.43 718.15 120.4 718.41 120.38C718.69 120.36 718.97 120.34 719.25 120.32C719.53 120.3 719.79 120.29 720.03 120.29C721.01 120.29 721.96 120.39 722.88 120.59C723.8 120.79 724.61 121.15 725.31 121.67C726.03 122.17 726.6 122.86 727.02 123.74C727.44 124.6 727.65 125.7 727.65 127.04C727.65 129.44 726.9 131.25 725.4 132.47C723.92 133.69 721.79 134.3 719.01 134.3C718.73 134.3 718.35 134.29 717.87 134.27C717.41 134.27 716.9 134.25 716.34 134.21C715.78 134.17 715.21 134.12 714.63 134.06C714.07 134 713.55 133.91 713.07 133.79V113ZM719.22 130.64C719.78 130.64 720.31 130.59 720.81 130.49C721.31 130.37 721.75 130.18 722.13 129.92C722.51 129.64 722.8 129.28 723 128.84C723.22 128.4 723.33 127.86 723.33 127.22C723.33 126.54 723.21 125.99 722.97 125.57C722.75 125.13 722.45 124.79 722.07 124.55C721.71 124.31 721.28 124.15 720.78 124.07C720.28 123.99 719.76 123.95 719.22 123.95C719.08 123.95 718.91 123.96 718.71 123.98C718.51 124 718.31 124.02 718.11 124.04C717.91 124.06 717.72 124.09 717.54 124.13C717.38 124.15 717.26 124.17 717.18 124.19V130.46C717.4 130.52 717.69 130.57 718.05 130.61C718.43 130.63 718.82 130.64 719.22 130.64ZM730.15 134V113H734.26V130.34H739.21V113H743.32V130.34H748.27V113H752.38V134H730.15ZM755.989 113H768.439V116.66H760.099V121.55H767.689V125.21H760.099V130.34H768.589V134H755.989V113ZM783.873 116.66H775.773V134H771.663V113H783.873V116.66ZM784.099 123.5C784.099 120 784.869 117.31 786.409 115.43C787.949 113.53 790.149 112.58 793.009 112.58C794.509 112.58 795.819 112.84 796.939 113.36C798.059 113.88 798.989 114.62 799.729 115.58C800.469 116.54 801.019 117.69 801.379 119.03C801.739 120.37 801.919 121.86 801.919 123.5C801.919 127 801.139 129.7 799.579 131.6C798.039 133.48 795.849 134.42 793.009 134.42C791.489 134.42 790.169 134.16 789.049 133.64C787.929 133.12 786.999 132.38 786.259 131.42C785.539 130.46 784.999 129.31 784.639 127.97C784.279 126.63 784.099 125.14 784.099 123.5ZM788.419 123.5C788.419 124.56 788.509 125.54 788.689 126.44C788.869 127.32 789.139 128.08 789.499 128.72C789.879 129.36 790.359 129.86 790.939 130.22C791.519 130.58 792.209 130.76 793.009 130.76C794.469 130.76 795.599 130.19 796.399 129.05C797.199 127.91 797.599 126.06 797.599 123.5C797.599 122.48 797.509 121.53 797.329 120.65C797.169 119.77 796.909 119 796.549 118.34C796.189 117.68 795.719 117.17 795.139 116.81C794.559 116.43 793.849 116.24 793.009 116.24C791.549 116.24 790.419 116.83 789.619 118.01C788.819 119.17 788.419 121 788.419 123.5ZM806.057 113H810.077V122.87L809.297 127.76H806.837L806.057 122.87V113ZM805.637 132.02C805.637 131.32 805.857 130.77 806.297 130.37C806.737 129.95 807.317 129.74 808.037 129.74C808.797 129.74 809.397 129.95 809.837 130.37C810.277 130.77 810.497 131.32 810.497 132.02C810.497 132.72 810.277 133.28 809.837 133.7C809.397 134.12 808.797 134.33 808.037 134.33C807.317 134.33 806.737 134.12 806.297 133.7C805.857 133.28 805.637 132.72 805.637 132.02Z" fill="black"/>
<path d="M276.554 171.754C277.111 171.622 277.712 171.534 278.358 171.49C279.003 171.446 279.641 171.424 280.272 171.424C280.946 171.424 281.628 171.49 282.318 171.622C283.022 171.754 283.66 171.996 284.232 172.348C284.804 172.7 285.266 173.184 285.618 173.8C285.984 174.416 286.168 175.201 286.168 176.154C286.168 177.093 285.999 177.885 285.662 178.53C285.324 179.175 284.877 179.703 284.32 180.114C283.762 180.51 283.124 180.796 282.406 180.972C281.687 181.148 280.946 181.236 280.184 181.236C280.11 181.236 279.986 181.236 279.81 181.236C279.648 181.236 279.472 181.236 279.282 181.236C279.106 181.221 278.93 181.207 278.754 181.192C278.578 181.177 278.453 181.163 278.38 181.148V187H276.554V171.754ZM280.316 173.008C279.934 173.008 279.568 173.015 279.216 173.03C278.864 173.045 278.585 173.081 278.38 173.14V179.52C278.453 179.549 278.57 179.571 278.732 179.586C278.893 179.586 279.062 179.593 279.238 179.608C279.414 179.608 279.582 179.608 279.744 179.608C279.905 179.608 280.022 179.608 280.096 179.608C280.594 179.608 281.086 179.564 281.57 179.476C282.068 179.373 282.516 179.197 282.912 178.948C283.308 178.699 283.623 178.347 283.858 177.892C284.107 177.437 284.232 176.858 284.232 176.154C284.232 175.553 284.114 175.054 283.88 174.658C283.66 174.247 283.359 173.925 282.978 173.69C282.611 173.441 282.193 173.265 281.724 173.162C281.254 173.059 280.785 173.008 280.316 173.008ZM287.739 176.814C288.296 176.477 288.941 176.227 289.675 176.066C290.423 175.905 291.2 175.824 292.007 175.824C292.769 175.824 293.378 175.927 293.833 176.132C294.302 176.337 294.654 176.609 294.889 176.946C295.138 177.269 295.299 177.628 295.373 178.024C295.461 178.42 295.505 178.816 295.505 179.212C295.505 180.092 295.483 180.95 295.439 181.786C295.395 182.622 295.373 183.414 295.373 184.162C295.373 184.705 295.395 185.218 295.439 185.702C295.483 186.186 295.563 186.633 295.681 187.044H294.383L293.921 185.504H293.811C293.679 185.709 293.51 185.915 293.305 186.12C293.114 186.311 292.879 186.487 292.601 186.648C292.322 186.795 291.999 186.919 291.633 187.022C291.266 187.125 290.848 187.176 290.379 187.176C289.909 187.176 289.469 187.103 289.059 186.956C288.663 186.809 288.318 186.604 288.025 186.34C287.731 186.061 287.497 185.731 287.321 185.35C287.159 184.969 287.079 184.536 287.079 184.052C287.079 183.407 287.211 182.871 287.475 182.446C287.739 182.006 288.105 181.661 288.575 181.412C289.059 181.148 289.631 180.965 290.291 180.862C290.965 180.745 291.706 180.686 292.513 180.686C292.718 180.686 292.916 180.686 293.107 180.686C293.312 180.686 293.517 180.701 293.723 180.73C293.767 180.29 293.789 179.894 293.789 179.542C293.789 178.735 293.627 178.171 293.305 177.848C292.982 177.525 292.395 177.364 291.545 177.364C291.295 177.364 291.024 177.386 290.731 177.43C290.452 177.459 290.159 177.511 289.851 177.584C289.557 177.643 289.271 177.723 288.993 177.826C288.729 177.914 288.494 178.017 288.289 178.134L287.739 176.814ZM290.863 185.636C291.273 185.636 291.64 185.585 291.963 185.482C292.285 185.365 292.564 185.225 292.799 185.064C293.033 184.888 293.224 184.697 293.371 184.492C293.532 184.287 293.649 184.089 293.723 183.898V182.072C293.517 182.057 293.305 182.05 293.085 182.05C292.879 182.035 292.674 182.028 292.469 182.028C292.014 182.028 291.567 182.057 291.127 182.116C290.701 182.16 290.32 182.255 289.983 182.402C289.66 182.534 289.396 182.725 289.191 182.974C289 183.209 288.905 183.509 288.905 183.876C288.905 184.389 289.088 184.815 289.455 185.152C289.821 185.475 290.291 185.636 290.863 185.636ZM306.331 186.274C305.891 186.597 305.37 186.839 304.769 187C304.167 187.176 303.537 187.264 302.877 187.264C302.026 187.264 301.307 187.132 300.721 186.868C300.134 186.589 299.65 186.201 299.269 185.702C298.902 185.189 298.631 184.58 298.455 183.876C298.293 183.157 298.213 182.365 298.213 181.5C298.213 179.637 298.623 178.215 299.445 177.232C300.266 176.235 301.447 175.736 302.987 175.736C303.691 175.736 304.285 175.795 304.769 175.912C305.267 176.015 305.715 176.169 306.111 176.374L305.605 177.892C305.267 177.701 304.893 177.555 304.483 177.452C304.072 177.335 303.632 177.276 303.163 177.276C301.08 177.276 300.039 178.684 300.039 181.5C300.039 182.057 300.09 182.593 300.193 183.106C300.31 183.605 300.493 184.052 300.743 184.448C301.007 184.829 301.344 185.137 301.755 185.372C302.18 185.607 302.701 185.724 303.317 185.724C303.845 185.724 304.314 185.643 304.725 185.482C305.15 185.321 305.495 185.137 305.759 184.932L306.331 186.274ZM315.741 186.274C315.301 186.597 314.78 186.839 314.179 187C313.578 187.176 312.947 187.264 312.287 187.264C311.436 187.264 310.718 187.132 310.131 186.868C309.544 186.589 309.06 186.201 308.679 185.702C308.312 185.189 308.041 184.58 307.865 183.876C307.704 183.157 307.623 182.365 307.623 181.5C307.623 179.637 308.034 178.215 308.855 177.232C309.676 176.235 310.857 175.736 312.397 175.736C313.101 175.736 313.695 175.795 314.179 175.912C314.678 176.015 315.125 176.169 315.521 176.374L315.015 177.892C314.678 177.701 314.304 177.555 313.893 177.452C313.482 177.335 313.042 177.276 312.573 177.276C310.49 177.276 309.449 178.684 309.449 181.5C309.449 182.057 309.5 182.593 309.603 183.106C309.72 183.605 309.904 184.052 310.153 184.448C310.417 184.829 310.754 185.137 311.165 185.372C311.59 185.607 312.111 185.724 312.727 185.724C313.255 185.724 313.724 185.643 314.135 185.482C314.56 185.321 314.905 185.137 315.169 184.932L315.741 186.274ZM327.251 180.466L327.383 178.376H327.273L326.481 180.07L323.819 184.382H323.203L320.431 180.07L319.705 178.376H319.617L319.793 180.444V187H318.165V176H319.903L322.983 180.928L323.621 182.204H323.665L324.325 180.884L327.207 176H328.967V187H327.251V180.466ZM331.728 181.5C331.728 179.637 332.139 178.215 332.96 177.232C333.796 176.235 334.992 175.736 336.546 175.736C337.368 175.736 338.079 175.875 338.68 176.154C339.296 176.418 339.802 176.807 340.198 177.32C340.594 177.819 340.888 178.427 341.078 179.146C341.269 179.85 341.364 180.635 341.364 181.5C341.364 183.363 340.946 184.793 340.11 185.79C339.289 186.773 338.101 187.264 336.546 187.264C335.725 187.264 335.006 187.132 334.39 186.868C333.789 186.589 333.29 186.201 332.894 185.702C332.498 185.189 332.205 184.58 332.014 183.876C331.824 183.157 331.728 182.365 331.728 181.5ZM333.554 181.5C333.554 182.057 333.606 182.593 333.708 183.106C333.826 183.619 334.002 184.067 334.236 184.448C334.471 184.829 334.779 185.137 335.16 185.372C335.542 185.607 336.004 185.724 336.546 185.724C338.541 185.739 339.538 184.331 339.538 181.5C339.538 180.928 339.48 180.385 339.362 179.872C339.26 179.359 339.091 178.911 338.856 178.53C338.622 178.149 338.314 177.848 337.932 177.628C337.551 177.393 337.089 177.276 336.546 177.276C334.552 177.261 333.554 178.669 333.554 181.5ZM350.814 177.54H347.36V187H345.6V177.54H342.146V176H350.814V177.54ZM352.561 176H353.771L354.101 177.32H354.189C354.527 176.807 354.959 176.418 355.487 176.154C356.03 175.875 356.646 175.736 357.335 175.736C358.802 175.736 359.895 176.169 360.613 177.034C361.332 177.899 361.691 179.315 361.691 181.28C361.691 182.204 361.567 183.04 361.317 183.788C361.083 184.521 360.745 185.145 360.305 185.658C359.865 186.171 359.33 186.567 358.699 186.846C358.083 187.125 357.394 187.264 356.631 187.264C356.089 187.264 355.656 187.227 355.333 187.154C355.025 187.095 354.688 186.985 354.321 186.824V191.4H352.561V176ZM357.005 177.276C356.257 177.276 355.663 177.474 355.223 177.87C354.798 178.251 354.497 178.838 354.321 179.63V185.086C354.585 185.291 354.886 185.453 355.223 185.57C355.561 185.673 356.008 185.724 356.565 185.724C357.577 185.724 358.377 185.35 358.963 184.602C359.565 183.839 359.865 182.725 359.865 181.258C359.865 180.657 359.814 180.114 359.711 179.63C359.609 179.131 359.44 178.713 359.205 178.376C358.985 178.024 358.692 177.753 358.325 177.562C357.973 177.371 357.533 177.276 357.005 177.276ZM371.328 180.488L371.394 179.124H371.328L370.426 180.532L365.476 187H364.464V176H366.224V182.71L366.158 184.008H366.246L367.104 182.644L372.054 176H373.088V187H371.328V180.488ZM385.559 180.466L385.691 178.376H385.581L384.789 180.07L382.127 184.382H381.511L378.739 180.07L378.013 178.376H377.925L378.101 180.444V187H376.473V176H378.211L381.291 180.928L381.929 182.204H381.973L382.633 180.884L385.515 176H387.275V187H385.559V180.466ZM403.14 177.54H398.278V187H396.518V176H404.9V187H403.14V177.54ZM408.292 176H409.502L409.832 177.32H409.92C410.257 176.807 410.69 176.418 411.218 176.154C411.76 175.875 412.376 175.736 413.066 175.736C414.532 175.736 415.625 176.169 416.344 177.034C417.062 177.899 417.422 179.315 417.422 181.28C417.422 182.204 417.297 183.04 417.048 183.788C416.813 184.521 416.476 185.145 416.036 185.658C415.596 186.171 415.06 186.567 414.43 186.846C413.814 187.125 413.124 187.264 412.362 187.264C411.819 187.264 411.386 187.227 411.064 187.154C410.756 187.095 410.418 186.985 410.052 186.824V191.4H408.292V176ZM412.736 177.276C411.988 177.276 411.394 177.474 410.954 177.87C410.528 178.251 410.228 178.838 410.052 179.63V185.086C410.316 185.291 410.616 185.453 410.954 185.57C411.291 185.673 411.738 185.724 412.296 185.724C413.308 185.724 414.107 185.35 414.694 184.602C415.295 183.839 415.596 182.725 415.596 181.258C415.596 180.657 415.544 180.114 415.442 179.63C415.339 179.131 415.17 178.713 414.936 178.376C414.716 178.024 414.422 177.753 414.056 177.562C413.704 177.371 413.264 177.276 412.736 177.276ZM427.058 180.488L427.124 179.124H427.058L426.156 180.532L421.206 187H420.194V176H421.954V182.71L421.888 184.008H421.976L422.834 182.644L427.784 176H428.818V187H427.058V180.488ZM433.348 176V178.992C433.348 179.388 433.37 179.747 433.414 180.07C433.458 180.378 433.546 180.649 433.678 180.884C433.81 181.104 434 181.28 434.25 181.412C434.499 181.529 434.829 181.588 435.24 181.588C435.9 181.588 436.442 181.515 436.868 181.368C437.293 181.221 437.616 181.06 437.836 180.884V176H439.596V187H437.836V182.38C437.601 182.527 437.249 182.688 436.78 182.864C436.325 183.04 435.694 183.128 434.888 183.128C434.345 183.128 433.868 183.069 433.458 182.952C433.047 182.835 432.702 182.629 432.424 182.336C432.145 182.043 431.932 181.654 431.786 181.17C431.654 180.686 431.588 180.077 431.588 179.344V176H433.348ZM449.853 180.488L449.919 179.124H449.853L448.951 180.532L444.001 187H442.989V176H444.749V182.71L444.683 184.008H444.771L445.629 182.644L450.579 176H451.613V187H449.853V180.488ZM461.731 182.138H456.759V187H454.999V176H456.759V180.598H461.731V176H463.491V187H461.731V182.138ZM468.64 185.46C469.182 185.548 469.703 185.592 470.202 185.592C471.126 185.592 471.771 185.416 472.138 185.064C472.504 184.697 472.688 184.184 472.688 183.524C472.688 182.937 472.504 182.453 472.138 182.072C471.786 181.691 471.162 181.5 470.268 181.5C470.018 181.5 469.747 181.507 469.454 181.522C469.16 181.537 468.889 181.581 468.64 181.654V185.46ZM468.64 180.202C468.992 180.143 469.329 180.107 469.652 180.092C469.974 180.063 470.282 180.048 470.576 180.048C471.324 180.048 471.947 180.136 472.446 180.312C472.959 180.473 473.37 180.701 473.678 180.994C473.986 181.287 474.198 181.639 474.316 182.05C474.448 182.446 474.514 182.871 474.514 183.326C474.514 184.661 474.14 185.629 473.392 186.23C472.658 186.831 471.463 187.132 469.806 187.132C468.867 187.132 467.892 187.088 466.88 187V176H468.64V180.202ZM476.252 176H478.012V187H476.252V176ZM480.787 186.054C480.787 185.702 480.904 185.416 481.139 185.196C481.374 184.976 481.674 184.866 482.041 184.866C482.496 184.866 482.862 185.027 483.141 185.35C483.434 185.673 483.581 186.142 483.581 186.758C483.581 187.286 483.508 187.748 483.361 188.144C483.214 188.54 483.024 188.877 482.789 189.156C482.554 189.449 482.298 189.684 482.019 189.86C481.74 190.051 481.462 190.19 481.183 190.278L480.633 189.42C481.161 189.215 481.55 188.892 481.799 188.452C482.063 188.027 482.195 187.594 482.195 187.154C482.063 187.198 481.938 187.22 481.821 187.22C481.528 187.22 481.278 187.125 481.073 186.934C480.882 186.729 480.787 186.435 480.787 186.054ZM497.113 177.54H492.251V187H490.491V176H498.873V187H497.113V177.54ZM501.648 181.5C501.648 179.637 502.059 178.215 502.88 177.232C503.716 176.235 504.912 175.736 506.466 175.736C507.288 175.736 507.999 175.875 508.6 176.154C509.216 176.418 509.722 176.807 510.118 177.32C510.514 177.819 510.808 178.427 510.998 179.146C511.189 179.85 511.284 180.635 511.284 181.5C511.284 183.363 510.866 184.793 510.03 185.79C509.209 186.773 508.021 187.264 506.466 187.264C505.645 187.264 504.926 187.132 504.31 186.868C503.709 186.589 503.21 186.201 502.814 185.702C502.418 185.189 502.125 184.58 501.934 183.876C501.744 183.157 501.648 182.365 501.648 181.5ZM503.474 181.5C503.474 182.057 503.526 182.593 503.628 183.106C503.746 183.619 503.922 184.067 504.156 184.448C504.391 184.829 504.699 185.137 505.08 185.372C505.462 185.607 505.924 185.724 506.466 185.724C508.461 185.739 509.458 184.331 509.458 181.5C509.458 180.928 509.4 180.385 509.282 179.872C509.18 179.359 509.011 178.911 508.776 178.53C508.542 178.149 508.234 177.848 507.852 177.628C507.471 177.393 507.009 177.276 506.466 177.276C504.472 177.261 503.474 178.669 503.474 181.5ZM522.696 182.05H521.684V187H519.924V176H521.684V180.972L522.63 180.664L526.15 176H528.064L524.654 180.422L523.73 181.148L524.874 182.028L528.548 187H526.37L522.696 182.05ZM529.578 181.5C529.578 179.637 529.989 178.215 530.81 177.232C531.646 176.235 532.841 175.736 534.396 175.736C535.217 175.736 535.929 175.875 536.53 176.154C537.146 176.418 537.652 176.807 538.048 177.32C538.444 177.819 538.737 178.427 538.928 179.146C539.119 179.85 539.214 180.635 539.214 181.5C539.214 183.363 538.796 184.793 537.96 185.79C537.139 186.773 535.951 187.264 534.396 187.264C533.575 187.264 532.856 187.132 532.24 186.868C531.639 186.589 531.14 186.201 530.744 185.702C530.348 185.189 530.055 184.58 529.864 183.876C529.673 183.157 529.578 182.365 529.578 181.5ZM531.404 181.5C531.404 182.057 531.455 182.593 531.558 183.106C531.675 183.619 531.851 184.067 532.086 184.448C532.321 184.829 532.629 185.137 533.01 185.372C533.391 185.607 533.853 185.724 534.396 185.724C536.391 185.739 537.388 184.331 537.388 181.5C537.388 180.928 537.329 180.385 537.212 179.872C537.109 179.359 536.941 178.911 536.706 178.53C536.471 178.149 536.163 177.848 535.782 177.628C535.401 177.393 534.939 177.276 534.396 177.276C532.401 177.261 531.404 178.669 531.404 181.5ZM548.663 177.54H545.209V187H543.449V177.54H539.995V176H548.663V177.54ZM549.451 181.5C549.451 179.637 549.862 178.215 550.683 177.232C551.519 176.235 552.714 175.736 554.269 175.736C555.09 175.736 555.802 175.875 556.403 176.154C557.019 176.418 557.525 176.807 557.921 177.32C558.317 177.819 558.61 178.427 558.801 179.146C558.992 179.85 559.087 180.635 559.087 181.5C559.087 183.363 558.669 184.793 557.833 185.79C557.012 186.773 555.824 187.264 554.269 187.264C553.448 187.264 552.729 187.132 552.113 186.868C551.512 186.589 551.013 186.201 550.617 185.702C550.221 185.189 549.928 184.58 549.737 183.876C549.546 183.157 549.451 182.365 549.451 181.5ZM551.277 181.5C551.277 182.057 551.328 182.593 551.431 183.106C551.548 183.619 551.724 184.067 551.959 184.448C552.194 184.829 552.502 185.137 552.883 185.372C553.264 185.607 553.726 185.724 554.269 185.724C556.264 185.739 557.261 184.331 557.261 181.5C557.261 180.928 557.202 180.385 557.085 179.872C556.982 179.359 556.814 178.911 556.579 178.53C556.344 178.149 556.036 177.848 555.655 177.628C555.274 177.393 554.812 177.276 554.269 177.276C552.274 177.261 551.277 178.669 551.277 181.5ZM561.862 176H563.072L563.402 177.32H563.49C563.827 176.807 564.26 176.418 564.788 176.154C565.331 175.875 565.947 175.736 566.636 175.736C568.103 175.736 569.195 176.169 569.914 177.034C570.633 177.899 570.992 179.315 570.992 181.28C570.992 182.204 570.867 183.04 570.618 183.788C570.383 184.521 570.046 185.145 569.606 185.658C569.166 186.171 568.631 186.567 568 186.846C567.384 187.125 566.695 187.264 565.932 187.264C565.389 187.264 564.957 187.227 564.634 187.154C564.326 187.095 563.989 186.985 563.622 186.824V191.4H561.862V176ZM566.306 177.276C565.558 177.276 564.964 177.474 564.524 177.87C564.099 178.251 563.798 178.838 563.622 179.63V185.086C563.886 185.291 564.187 185.453 564.524 185.57C564.861 185.673 565.309 185.724 565.866 185.724C566.878 185.724 567.677 185.35 568.264 184.602C568.865 183.839 569.166 182.725 569.166 181.258C569.166 180.657 569.115 180.114 569.012 179.63C568.909 179.131 568.741 178.713 568.506 178.376C568.286 178.024 567.993 177.753 567.626 177.562C567.274 177.371 566.834 177.276 566.306 177.276ZM575.524 185.46C576.067 185.548 576.588 185.592 577.086 185.592C578.01 185.592 578.656 185.416 579.022 185.064C579.389 184.697 579.572 184.184 579.572 183.524C579.572 182.937 579.389 182.453 579.022 182.072C578.67 181.691 578.047 181.5 577.152 181.5C576.903 181.5 576.632 181.507 576.338 181.522C576.045 181.537 575.774 181.581 575.524 181.654V185.46ZM575.524 180.202C575.876 180.143 576.214 180.107 576.536 180.092C576.859 180.063 577.167 180.048 577.46 180.048C578.208 180.048 578.832 180.136 579.33 180.312C579.844 180.473 580.254 180.701 580.562 180.994C580.87 181.287 581.083 181.639 581.2 182.05C581.332 182.446 581.398 182.871 581.398 183.326C581.398 184.661 581.024 185.629 580.276 186.23C579.543 186.831 578.348 187.132 576.69 187.132C575.752 187.132 574.776 187.088 573.764 187V176H575.524V180.202ZM583.136 176H584.896V187H583.136V176ZM597.374 180.466L597.506 178.376H597.396L596.604 180.07L593.942 184.382H593.326L590.554 180.07L589.828 178.376H589.74L589.916 180.444V187H588.288V176H590.026L593.106 180.928L593.744 182.204H593.788L594.448 180.884L597.33 176H599.09V187H597.374V180.466ZM618.365 186.362C617.925 186.699 617.367 186.934 616.693 187.066C616.018 187.198 615.299 187.264 614.537 187.264C613.613 187.264 612.747 187.11 611.941 186.802C611.134 186.479 610.43 185.995 609.829 185.35C609.227 184.705 608.751 183.883 608.399 182.886C608.047 181.874 607.871 180.679 607.871 179.3C607.871 177.863 608.061 176.645 608.443 175.648C608.839 174.636 609.352 173.815 609.983 173.184C610.628 172.539 611.347 172.069 612.139 171.776C612.931 171.483 613.737 171.336 614.559 171.336C615.439 171.336 616.157 171.387 616.715 171.49C617.272 171.578 617.749 171.703 618.145 171.864L617.705 173.47C617.001 173.133 615.996 172.964 614.691 172.964C614.089 172.964 613.495 173.074 612.909 173.294C612.322 173.514 611.794 173.873 611.325 174.372C610.87 174.871 610.503 175.523 610.225 176.33C609.946 177.137 609.807 178.127 609.807 179.3C609.807 180.356 609.939 181.28 610.203 182.072C610.467 182.864 610.826 183.524 611.281 184.052C611.75 184.58 612.293 184.976 612.909 185.24C613.539 185.504 614.221 185.636 614.955 185.636C615.615 185.636 616.187 185.57 616.671 185.438C617.169 185.306 617.587 185.137 617.925 184.932L618.365 186.362ZM628.158 186.12C627.718 186.472 627.16 186.751 626.486 186.956C625.826 187.161 625.122 187.264 624.374 187.264C623.538 187.264 622.812 187.132 622.196 186.868C621.58 186.589 621.074 186.201 620.678 185.702C620.282 185.189 619.988 184.58 619.798 183.876C619.607 183.172 619.512 182.38 619.512 181.5C619.512 179.623 619.93 178.193 620.766 177.21C621.602 176.227 622.797 175.736 624.352 175.736C624.85 175.736 625.349 175.795 625.848 175.912C626.346 176.015 626.794 176.22 627.19 176.528C627.586 176.836 627.908 177.276 628.158 177.848C628.407 178.405 628.532 179.146 628.532 180.07C628.532 180.554 628.488 181.089 628.4 181.676H621.338C621.338 182.321 621.404 182.893 621.536 183.392C621.668 183.891 621.873 184.316 622.152 184.668C622.43 185.005 622.79 185.269 623.23 185.46C623.684 185.636 624.234 185.724 624.88 185.724C625.378 185.724 625.877 185.636 626.376 185.46C626.874 185.284 627.248 185.079 627.498 184.844L628.158 186.12ZM624.374 177.276C623.508 177.276 622.812 177.503 622.284 177.958C621.77 178.413 621.462 179.19 621.36 180.29H626.816C626.816 179.175 626.603 178.398 626.178 177.958C625.752 177.503 625.151 177.276 624.374 177.276ZM640.529 189.794H639.341L639.011 187H630.739L630.409 189.794H629.221V185.46H630.519C630.637 185.299 630.791 185.013 630.981 184.602C631.172 184.177 631.355 183.59 631.531 182.842C631.722 182.079 631.883 181.141 632.015 180.026C632.162 178.897 632.25 177.555 632.279 176H638.923V185.46H640.529V189.794ZM637.163 185.46V177.54H633.863C633.834 178.156 633.783 178.831 633.709 179.564C633.636 180.283 633.533 181.009 633.401 181.742C633.284 182.461 633.13 183.143 632.939 183.788C632.749 184.433 632.529 184.991 632.279 185.46H637.163ZM642.092 181.5C642.092 179.637 642.502 178.215 643.324 177.232C644.16 176.235 645.355 175.736 646.91 175.736C647.731 175.736 648.442 175.875 649.044 176.154C649.66 176.418 650.166 176.807 650.562 177.32C650.958 177.819 651.251 178.427 651.442 179.146C651.632 179.85 651.728 180.635 651.728 181.5C651.728 183.363 651.31 184.793 650.474 185.79C649.652 186.773 648.464 187.264 646.91 187.264C646.088 187.264 645.37 187.132 644.754 186.868C644.152 186.589 643.654 186.201 643.258 185.702C642.862 185.189 642.568 184.58 642.378 183.876C642.187 183.157 642.092 182.365 642.092 181.5ZM643.918 181.5C643.918 182.057 643.969 182.593 644.072 183.106C644.189 183.619 644.365 184.067 644.6 184.448C644.834 184.829 645.142 185.137 645.524 185.372C645.905 185.607 646.367 185.724 646.91 185.724C648.904 185.739 649.902 184.331 649.902 181.5C649.902 180.928 649.843 180.385 649.726 179.872C649.623 179.359 649.454 178.911 649.22 178.53C648.985 178.149 648.677 177.848 648.296 177.628C647.914 177.393 647.452 177.276 646.91 177.276C644.915 177.261 643.918 178.669 643.918 181.5ZM661.235 182.138H656.263V187H654.503V176H656.263V180.598H661.235V176H662.995V187H661.235V182.138ZM666.207 176.814C666.765 176.477 667.41 176.227 668.143 176.066C668.891 175.905 669.669 175.824 670.475 175.824C671.238 175.824 671.847 175.927 672.301 176.132C672.771 176.337 673.123 176.609 673.357 176.946C673.607 177.269 673.768 177.628 673.841 178.024C673.929 178.42 673.973 178.816 673.973 179.212C673.973 180.092 673.951 180.95 673.907 181.786C673.863 182.622 673.841 183.414 673.841 184.162C673.841 184.705 673.863 185.218 673.907 185.702C673.951 186.186 674.032 186.633 674.149 187.044H672.851L672.389 185.504H672.279C672.147 185.709 671.979 185.915 671.773 186.12C671.583 186.311 671.348 186.487 671.069 186.648C670.791 186.795 670.468 186.919 670.101 187.022C669.735 187.125 669.317 187.176 668.847 187.176C668.378 187.176 667.938 187.103 667.527 186.956C667.131 186.809 666.787 186.604 666.493 186.34C666.2 186.061 665.965 185.731 665.789 185.35C665.628 184.969 665.547 184.536 665.547 184.052C665.547 183.407 665.679 182.871 665.943 182.446C666.207 182.006 666.574 181.661 667.043 181.412C667.527 181.148 668.099 180.965 668.759 180.862C669.434 180.745 670.175 180.686 670.981 180.686C671.187 180.686 671.385 180.686 671.575 180.686C671.781 180.686 671.986 180.701 672.191 180.73C672.235 180.29 672.257 179.894 672.257 179.542C672.257 178.735 672.096 178.171 671.773 177.848C671.451 177.525 670.864 177.364 670.013 177.364C669.764 177.364 669.493 177.386 669.199 177.43C668.921 177.459 668.627 177.511 668.319 177.584C668.026 177.643 667.74 177.723 667.461 177.826C667.197 177.914 666.963 178.017 666.757 178.134L666.207 176.814ZM669.331 185.636C669.742 185.636 670.109 185.585 670.431 185.482C670.754 185.365 671.033 185.225 671.267 185.064C671.502 184.888 671.693 184.697 671.839 184.492C672.001 184.287 672.118 184.089 672.191 183.898V182.072C671.986 182.057 671.773 182.05 671.553 182.05C671.348 182.035 671.143 182.028 670.937 182.028C670.483 182.028 670.035 182.057 669.595 182.116C669.17 182.16 668.789 182.255 668.451 182.402C668.129 182.534 667.865 182.725 667.659 182.974C667.469 183.209 667.373 183.509 667.373 183.876C667.373 184.389 667.557 184.815 667.923 185.152C668.29 185.475 668.759 185.636 669.331 185.636ZM685.935 182.05H684.923V187H683.163V176H684.923V180.972L685.869 180.664L689.389 176H691.303L687.893 180.422L686.969 181.148L688.113 182.028L691.787 187H689.609L685.935 182.05ZM693.669 176H694.879L695.209 177.32H695.297C695.634 176.807 696.067 176.418 696.595 176.154C697.137 175.875 697.753 175.736 698.443 175.736C699.909 175.736 701.002 176.169 701.721 177.034C702.439 177.899 702.799 179.315 702.799 181.28C702.799 182.204 702.674 183.04 702.425 183.788C702.19 184.521 701.853 185.145 701.413 185.658C700.973 186.171 700.437 186.567 699.807 186.846C699.191 187.125 698.501 187.264 697.739 187.264C697.196 187.264 696.763 187.227 696.441 187.154C696.133 187.095 695.795 186.985 695.429 186.824V191.4H693.669V176ZM698.113 177.276C697.365 177.276 696.771 177.474 696.331 177.87C695.905 178.251 695.605 178.838 695.429 179.63V185.086C695.693 185.291 695.993 185.453 696.331 185.57C696.668 185.673 697.115 185.724 697.673 185.724C698.685 185.724 699.484 185.35 700.071 184.602C700.672 183.839 700.973 182.725 700.973 181.258C700.973 180.657 700.921 180.114 700.819 179.63C700.716 179.131 700.547 178.713 700.313 178.376C700.093 178.024 699.799 177.753 699.433 177.562C699.081 177.371 698.641 177.276 698.113 177.276ZM708.547 183.128L709.163 185.24H709.273L709.757 183.106L711.891 176H713.673L710.417 185.878C710.168 186.597 709.918 187.293 709.669 187.968C709.434 188.643 709.17 189.244 708.877 189.772C708.584 190.3 708.254 190.718 707.887 191.026C707.52 191.349 707.095 191.51 706.611 191.51C706.083 191.51 705.65 191.437 705.313 191.29L705.621 189.772C705.812 189.845 705.995 189.882 706.171 189.882C706.582 189.882 706.978 189.662 707.359 189.222C707.74 188.797 708.056 188.056 708.305 187L703.883 176H705.907L708.547 183.128ZM716.705 176V178.992C716.705 179.388 716.727 179.747 716.771 180.07C716.815 180.378 716.903 180.649 717.035 180.884C717.167 181.104 717.358 181.28 717.607 181.412C717.857 181.529 718.187 181.588 718.597 181.588C719.257 181.588 719.8 181.515 720.225 181.368C720.651 181.221 720.973 181.06 721.193 180.884V176H722.953V187H721.193V182.38C720.959 182.527 720.607 182.688 720.137 182.864C719.683 183.04 719.052 183.128 718.245 183.128C717.703 183.128 717.226 183.069 716.815 182.952C716.405 182.835 716.06 182.629 715.781 182.336C715.503 182.043 715.29 181.654 715.143 181.17C715.011 180.686 714.945 180.077 714.945 179.344V176H716.705ZM734.376 186.12C733.936 186.472 733.379 186.751 732.704 186.956C732.044 187.161 731.34 187.264 730.592 187.264C729.756 187.264 729.03 187.132 728.414 186.868C727.798 186.589 727.292 186.201 726.896 185.702C726.5 185.189 726.207 184.58 726.016 183.876C725.826 183.172 725.73 182.38 725.73 181.5C725.73 179.623 726.148 178.193 726.984 177.21C727.82 176.227 729.016 175.736 730.57 175.736C731.069 175.736 731.568 175.795 732.066 175.912C732.565 176.015 733.012 176.22 733.408 176.528C733.804 176.836 734.127 177.276 734.376 177.848C734.626 178.405 734.75 179.146 734.75 180.07C734.75 180.554 734.706 181.089 734.618 181.676H727.556C727.556 182.321 727.622 182.893 727.754 183.392C727.886 183.891 728.092 184.316 728.37 184.668C728.649 185.005 729.008 185.269 729.448 185.46C729.903 185.636 730.453 185.724 731.098 185.724C731.597 185.724 732.096 185.636 732.594 185.46C733.093 185.284 733.467 185.079 733.716 184.844L734.376 186.12ZM730.592 177.276C729.727 177.276 729.03 177.503 728.502 177.958C727.989 178.413 727.681 179.19 727.578 180.29H733.034C733.034 179.175 732.822 178.398 732.396 177.958C731.971 177.503 731.37 177.276 730.592 177.276ZM736.902 186.054C736.902 185.702 737.02 185.416 737.254 185.196C737.489 184.976 737.79 184.866 738.156 184.866C738.611 184.866 738.978 185.027 739.256 185.35C739.55 185.673 739.696 186.142 739.696 186.758C739.696 187.286 739.623 187.748 739.476 188.144C739.33 188.54 739.139 188.877 738.904 189.156C738.67 189.449 738.413 189.684 738.134 189.86C737.856 190.051 737.577 190.19 737.298 190.278L736.748 189.42C737.276 189.215 737.665 188.892 737.914 188.452C738.178 188.027 738.31 187.594 738.31 187.154C738.178 187.198 738.054 187.22 737.936 187.22C737.643 187.22 737.394 187.125 737.188 186.934C736.998 186.729 736.902 186.435 736.902 186.054ZM747.75 176V178.992C747.75 179.388 747.772 179.747 747.816 180.07C747.86 180.378 747.948 180.649 748.08 180.884C748.212 181.104 748.403 181.28 748.652 181.412C748.901 181.529 749.231 181.588 749.642 181.588C750.302 181.588 750.845 181.515 751.27 181.368C751.695 181.221 752.018 181.06 752.238 180.884V176H753.998V187H752.238V182.38C752.003 182.527 751.651 182.688 751.182 182.864C750.727 183.04 750.097 183.128 749.29 183.128C748.747 183.128 748.271 183.069 747.86 182.952C747.449 182.835 747.105 182.629 746.826 182.336C746.547 182.043 746.335 181.654 746.188 181.17C746.056 180.686 745.99 180.077 745.99 179.344V176H747.75ZM765.421 186.12C764.981 186.472 764.424 186.751 763.749 186.956C763.089 187.161 762.385 187.264 761.637 187.264C760.801 187.264 760.075 187.132 759.459 186.868C758.843 186.589 758.337 186.201 757.941 185.702C757.545 185.189 757.252 184.58 757.061 183.876C756.871 183.172 756.775 182.38 756.775 181.5C756.775 179.623 757.193 178.193 758.029 177.21C758.865 176.227 760.061 175.736 761.615 175.736C762.114 175.736 762.613 175.795 763.111 175.912C763.61 176.015 764.057 176.22 764.453 176.528C764.849 176.836 765.172 177.276 765.421 177.848C765.671 178.405 765.795 179.146 765.795 180.07C765.795 180.554 765.751 181.089 765.663 181.676H758.601C758.601 182.321 758.667 182.893 758.799 183.392C758.931 183.891 759.137 184.316 759.415 184.668C759.694 185.005 760.053 185.269 760.493 185.46C760.948 185.636 761.498 185.724 762.143 185.724C762.642 185.724 763.141 185.636 763.639 185.46C764.138 185.284 764.512 185.079 764.761 184.844L765.421 186.12ZM761.637 177.276C760.772 177.276 760.075 177.503 759.547 177.958C759.034 178.413 758.726 179.19 758.623 180.29H764.079C764.079 179.175 763.867 178.398 763.441 177.958C763.016 177.503 762.415 177.276 761.637 177.276ZM777.649 180.466L777.781 178.376H777.671L776.879 180.07L774.217 184.382H773.601L770.829 180.07L770.103 178.376H770.015L770.191 180.444V187H768.563V176H770.301L773.381 180.928L774.019 182.204H774.063L774.723 180.884L777.605 176H779.365V187H777.649V180.466ZM797.034 173.228H790.61V187H788.784V171.6H797.034V173.228ZM795.913 176H797.123L797.453 177.32H797.541C797.878 176.807 798.311 176.418 798.839 176.154C799.381 175.875 799.997 175.736 800.687 175.736C802.153 175.736 803.246 176.169 803.965 177.034C804.683 177.899 805.043 179.315 805.043 181.28C805.043 182.204 804.918 183.04 804.669 183.788C804.434 184.521 804.097 185.145 803.657 185.658C803.217 186.171 802.681 186.567 802.051 186.846C801.435 187.125 800.745 187.264 799.983 187.264C799.44 187.264 799.007 187.227 798.685 187.154C798.377 187.095 798.039 186.985 797.673 186.824V191.4H795.913V176ZM800.357 177.276C799.609 177.276 799.015 177.474 798.575 177.87C798.149 178.251 797.849 178.838 797.673 179.63V185.086C797.937 185.291 798.237 185.453 798.575 185.57C798.912 185.673 799.359 185.724 799.917 185.724C800.929 185.724 801.728 185.35 802.315 184.602C802.916 183.839 803.217 182.725 803.217 181.258C803.217 180.657 803.165 180.114 803.063 179.63C802.96 179.131 802.791 178.713 802.557 178.376C802.337 178.024 802.043 177.753 801.677 177.562C801.325 177.371 800.885 177.276 800.357 177.276ZM807.639 176.814C808.196 176.477 808.842 176.227 809.575 176.066C810.323 175.905 811.1 175.824 811.907 175.824C812.67 175.824 813.278 175.927 813.733 176.132C814.202 176.337 814.554 176.609 814.789 176.946C815.038 177.269 815.2 177.628 815.273 178.024C815.361 178.42 815.405 178.816 815.405 179.212C815.405 180.092 815.383 180.95 815.339 181.786C815.295 182.622 815.273 183.414 815.273 184.162C815.273 184.705 815.295 185.218 815.339 185.702C815.383 186.186 815.464 186.633 815.581 187.044H814.283L813.821 185.504H813.711C813.579 185.709 813.41 185.915 813.205 186.12C813.014 186.311 812.78 186.487 812.501 186.648C812.222 186.795 811.9 186.919 811.533 187.022C811.166 187.125 810.748 187.176 810.279 187.176C809.81 187.176 809.37 187.103 808.959 186.956C808.563 186.809 808.218 186.604 807.925 186.34C807.632 186.061 807.397 185.731 807.221 185.35C807.06 184.969 806.979 184.536 806.979 184.052C806.979 183.407 807.111 182.871 807.375 182.446C807.639 182.006 808.006 181.661 808.475 181.412C808.959 181.148 809.531 180.965 810.191 180.862C810.866 180.745 811.606 180.686 812.413 180.686C812.618 180.686 812.816 180.686 813.007 180.686C813.212 180.686 813.418 180.701 813.623 180.73C813.667 180.29 813.689 179.894 813.689 179.542C813.689 178.735 813.528 178.171 813.205 177.848C812.882 177.525 812.296 177.364 811.445 177.364C811.196 177.364 810.924 177.386 810.631 177.43C810.352 177.459 810.059 177.511 809.751 177.584C809.458 177.643 809.172 177.723 808.893 177.826C808.629 177.914 808.394 178.017 808.189 178.134L807.639 176.814ZM810.763 185.636C811.174 185.636 811.54 185.585 811.863 185.482C812.186 185.365 812.464 185.225 812.699 185.064C812.934 184.888 813.124 184.697 813.271 184.492C813.432 184.287 813.55 184.089 813.623 183.898V182.072C813.418 182.057 813.205 182.05 812.985 182.05C812.78 182.035 812.574 182.028 812.369 182.028C811.914 182.028 811.467 182.057 811.027 182.116C810.602 182.16 810.22 182.255 809.883 182.402C809.56 182.534 809.296 182.725 809.091 182.974C808.9 183.209 808.805 183.509 808.805 183.876C808.805 184.389 808.988 184.815 809.355 185.152C809.722 185.475 810.191 185.636 810.763 185.636ZM825.461 182.138H820.489V187H818.729V176H820.489V180.598H825.461V176H827.221V187H825.461V182.138ZM840.334 189.794H839.146L838.816 187H830.544L830.214 189.794H829.026V185.46H830.324C830.441 185.299 830.595 185.013 830.786 184.602C830.977 184.177 831.16 183.59 831.336 182.842C831.527 182.079 831.688 181.141 831.82 180.026C831.967 178.897 832.055 177.555 832.084 176H838.728V185.46H840.334V189.794ZM836.968 185.46V177.54H833.668C833.639 178.156 833.587 178.831 833.514 179.564C833.441 180.283 833.338 181.009 833.206 181.742C833.089 182.461 832.935 183.143 832.744 183.788C832.553 184.433 832.333 184.991 832.084 185.46H836.968ZM842.116 179.85H847.44V181.478H842.116V179.85ZM853.476 179.872H852.442V187H850.616V171.6H852.442V178.772L853.432 178.464L858.602 171.6H860.714L855.566 178.222L854.642 178.948L855.764 179.828L861.396 187H859.086L853.476 179.872ZM863.692 176.814C864.249 176.477 864.894 176.227 865.628 176.066C866.376 175.905 867.153 175.824 867.96 175.824C868.722 175.824 869.331 175.927 869.786 176.132C870.255 176.337 870.607 176.609 870.842 176.946C871.091 177.269 871.252 177.628 871.326 178.024C871.414 178.42 871.458 178.816 871.458 179.212C871.458 180.092 871.436 180.95 871.392 181.786C871.348 182.622 871.326 183.414 871.326 184.162C871.326 184.705 871.348 185.218 871.392 185.702C871.436 186.186 871.516 186.633 871.634 187.044H870.336L869.874 185.504H869.764C869.632 185.709 869.463 185.915 869.258 186.12C869.067 186.311 868.832 186.487 868.554 186.648C868.275 186.795 867.952 186.919 867.586 187.022C867.219 187.125 866.801 187.176 866.332 187.176C865.862 187.176 865.422 187.103 865.012 186.956C864.616 186.809 864.271 186.604 863.978 186.34C863.684 186.061 863.45 185.731 863.274 185.35C863.112 184.969 863.032 184.536 863.032 184.052C863.032 183.407 863.164 182.871 863.428 182.446C863.692 182.006 864.058 181.661 864.528 181.412C865.012 181.148 865.584 180.965 866.244 180.862C866.918 180.745 867.659 180.686 868.466 180.686C868.671 180.686 868.869 180.686 869.06 180.686C869.265 180.686 869.47 180.701 869.676 180.73C869.72 180.29 869.742 179.894 869.742 179.542C869.742 178.735 869.58 178.171 869.258 177.848C868.935 177.525 868.348 177.364 867.498 177.364C867.248 177.364 866.977 177.386 866.684 177.43C866.405 177.459 866.112 177.511 865.804 177.584C865.51 177.643 865.224 177.723 864.946 177.826C864.682 177.914 864.447 178.017 864.242 178.134L863.692 176.814ZM866.816 185.636C867.226 185.636 867.593 185.585 867.916 185.482C868.238 185.365 868.517 185.225 868.752 185.064C868.986 184.888 869.177 184.697 869.324 184.492C869.485 184.287 869.602 184.089 869.676 183.898V182.072C869.47 182.057 869.258 182.05 869.038 182.05C868.832 182.035 868.627 182.028 868.422 182.028C867.967 182.028 867.52 182.057 867.08 182.116C866.654 182.16 866.273 182.255 865.936 182.402C865.613 182.534 865.349 182.725 865.144 182.974C864.953 183.209 864.858 183.509 864.858 183.876C864.858 184.389 865.041 184.815 865.408 185.152C865.774 185.475 866.244 185.636 866.816 185.636ZM881.514 182.138H876.542V187H874.782V176H876.542V180.598H881.514V176H883.274V187H881.514V182.138ZM888.423 185.46C888.965 185.548 889.486 185.592 889.985 185.592C890.909 185.592 891.591 185.416 892.031 185.064C892.471 184.697 892.691 184.184 892.691 183.524C892.691 182.937 892.478 182.453 892.053 182.072C891.627 181.691 890.96 181.5 890.051 181.5C889.801 181.5 889.53 181.507 889.237 181.522C888.943 181.537 888.672 181.581 888.423 181.654V185.46ZM888.423 180.202C888.775 180.143 889.112 180.107 889.435 180.092C889.757 180.063 890.065 180.048 890.359 180.048C891.121 180.048 891.767 180.136 892.295 180.312C892.823 180.473 893.248 180.701 893.571 180.994C893.908 181.287 894.15 181.639 894.297 182.05C894.443 182.446 894.517 182.871 894.517 183.326C894.517 184.661 894.113 185.629 893.307 186.23C892.515 186.831 891.275 187.132 889.589 187.132C888.65 187.132 887.675 187.088 886.663 187V176H888.423V180.202ZM896.016 181.5C896.016 179.637 896.426 178.215 897.248 177.232C898.084 176.235 899.279 175.736 900.834 175.736C901.655 175.736 902.366 175.875 902.968 176.154C903.584 176.418 904.09 176.807 904.486 177.32C904.882 177.819 905.175 178.427 905.366 179.146C905.556 179.85 905.652 180.635 905.652 181.5C905.652 183.363 905.234 184.793 904.398 185.79C903.576 186.773 902.388 187.264 900.834 187.264C900.012 187.264 899.294 187.132 898.678 186.868C898.076 186.589 897.578 186.201 897.182 185.702C896.786 185.189 896.492 184.58 896.302 183.876C896.111 183.157 896.016 182.365 896.016 181.5ZM897.841 181.5C897.841 182.057 897.893 182.593 897.996 183.106C898.113 183.619 898.289 184.067 898.524 184.448C898.758 184.829 899.066 185.137 899.448 185.372C899.829 185.607 900.291 185.724 900.834 185.724C902.828 185.739 903.826 184.331 903.826 181.5C903.826 180.928 903.767 180.385 903.65 179.872C903.547 179.359 903.378 178.911 903.144 178.53C902.909 178.149 902.601 177.848 902.22 177.628C901.838 177.393 901.376 177.276 900.834 177.276C898.839 177.261 897.841 178.669 897.841 181.5ZM915.158 182.138H910.186V187H908.426V176H910.186V180.598H915.158V176H916.918V187H915.158V182.138ZM921.407 171.6H923.233V179.234L922.859 183.106H921.781L921.407 179.234V171.6ZM921.033 185.988C921.033 185.592 921.143 185.284 921.363 185.064C921.598 184.829 921.906 184.712 922.287 184.712C922.683 184.712 922.999 184.829 923.233 185.064C923.468 185.284 923.585 185.592 923.585 185.988C923.585 186.369 923.468 186.677 923.233 186.912C922.999 187.147 922.683 187.264 922.287 187.264C921.906 187.264 921.598 187.147 921.363 186.912C921.143 186.677 921.033 186.369 921.033 185.988Z" fill="#333333"/>
</svg>
